<?xml version="1.0" encoding="iso-8859-1"?>
<!-- Uploaded to: SVG Repo, www.svgrepo.com, Generator: SVG Repo Mixer Tools -->
<svg version="1.1" id="Layer_1" xmlns="http://www.w3.org/2000/svg" xmlns:xlink="http://www.w3.org/1999/xlink" 
	 viewBox="0 0 512 512" xml:space="preserve">
<polygon style="fill:#367596;" points="503.83,32.681 503.83,98.043 449.362,119.83 471.149,32.681 "/>
<polygon style="fill:#5195AF;" points="471.149,32.681 471.149,119.83 305.021,119.83 326.809,32.681 "/>
<polygon style="fill:#27467A;" points="8.17,32.681 8.17,98.043 40.851,119.83 326.809,119.83 326.809,32.681 "/>
<polygon style="fill:#A0F6FA;" points="503.83,98.043 503.83,479.319 471.149,479.319 427.574,288.681 471.149,98.043 "/>
<rect x="8.17" y="98.043" style="fill:#D0FBFD;" width="462.979" height="381.277"/>
<path style="fill:#27467A;" d="M403.122,379.651h-16.34V320.12H256v-16.34h138.951c4.512,0,8.17,3.657,8.17,8.17V379.651z"/>
<path style="fill:#367596;" d="M125.219,379.651h-16.34V311.95c0-4.513,3.658-8.17,8.17-8.17H256v16.34H125.219V379.651z"/>
<rect x="247.83" y="244.246" style="fill:#27467A;" width="16.34" height="135.408"/>
<g>
	<rect x="59.37" y="368.76" style="fill:#5195AF;" width="110.113" height="59.359"/>
	<rect x="342.517" y="368.76" style="fill:#5195AF;" width="110.113" height="59.359"/>
	<rect x="148.513" y="149.243" style="fill:#5195AF;" width="214.986" height="105.897"/>
	<rect x="200.944" y="368.76" style="fill:#5195AF;" width="110.113" height="59.359"/>
</g>
<g>
	<path style="fill:#78E3EC;" d="M322.095,194.021h-132.19c-4.512,0-8.17-3.657-8.17-8.17s3.658-8.17,8.17-8.17h132.191
		c4.512,0,8.17,3.657,8.17,8.17C330.265,190.364,326.607,194.021,322.095,194.021z"/>
	<path style="fill:#78E3EC;" d="M291.855,226.702h-71.709c-4.512,0-8.17-3.657-8.17-8.17s3.658-8.17,8.17-8.17h71.709
		c4.512,0,8.17,3.657,8.17,8.17S296.367,226.702,291.855,226.702z"/>
</g>
<path d="M503.83,24.511H8.17c-4.512,0-8.17,3.657-8.17,8.17v446.638c0,4.513,3.658,8.17,8.17,8.17h495.66
	c4.512,0,8.17-3.657,8.17-8.17V392.17c0-4.513-3.658-8.17-8.17-8.17s-8.17,3.657-8.17,8.17v78.979H16.34V106.213H495.66v253.277
	c0,4.513,3.658,8.17,8.17,8.17s8.17-3.657,8.17-8.17V32.681C512,28.168,508.342,24.511,503.83,24.511z M16.34,40.851h302.298v49.021
	H16.34V40.851z M334.979,89.872V40.851H495.66v49.021H334.979z"/>
<path d="M415.591,56.647c-4.805,0-8.715,3.91-8.715,8.715c0,4.805,3.91,8.715,8.715,8.715c4.805,0,8.715-3.91,8.715-8.715
	S420.397,56.647,415.591,56.647z"/>
<path d="M370.928,56.647c-4.805,0-8.715,3.91-8.715,8.715c0,4.805,3.91,8.715,8.715,8.715s8.715-3.91,8.715-8.715
	S375.733,56.647,370.928,56.647z"/>
<path d="M460.255,56.647c-4.805,0-8.715,3.91-8.715,8.715c0,4.805,3.91,8.715,8.715,8.715c4.805,0,8.715-3.91,8.715-8.715
	S465.06,56.647,460.255,56.647z"/>
<path d="M342.517,360.587c-4.512,0-8.17,3.657-8.17,8.17v59.362c0,4.513,3.658,8.17,8.17,8.17H452.63c4.512,0,8.17-3.657,8.17-8.17
	v-59.362c0-4.513-3.658-8.17-8.17-8.17h-49.508V311.95c0-4.513-3.658-8.17-8.17-8.17H288.681c-4.512,0-8.17,3.657-8.17,8.17
	c0,4.513,3.658,8.17,8.17,8.17h98.1v40.468H342.517z M444.46,419.949h-93.772v-43.021h93.772V419.949z"/>
<path d="M335.712,185.851c0-4.513-3.658-8.17-8.17-8.17H184.458c-4.512,0-8.17,3.657-8.17,8.17s3.658,8.17,8.17,8.17h143.084
	C332.054,194.021,335.712,190.364,335.712,185.851z"/>
<path d="M305.472,218.531c0-4.513-3.658-8.17-8.17-8.17h-82.603c-4.512,0-8.17,3.657-8.17,8.17s3.658,8.17,8.17,8.17h82.603
	C301.814,226.702,305.472,223.045,305.472,218.531z"/>
<path d="M200.944,360.587c-4.512,0-8.17,3.657-8.17,8.17v59.362c0,4.513,3.658,8.17,8.17,8.17h110.113c4.512,0,8.17-3.657,8.17-8.17
	v-59.362c0-4.513-3.658-8.17-8.17-8.17H264.17v-97.277h99.32c4.512,0,8.17-3.657,8.17-8.17V149.243c0-4.513-3.658-8.17-8.17-8.17
	H148.509c-4.512,0-8.17,3.657-8.17,8.17V255.14c0,4.513,3.658,8.17,8.17,8.17h99.32v40.468H117.049c-4.512,0-8.17,3.657-8.17,8.17
	v48.638H59.37c-4.512,0-8.17,3.657-8.17,8.17v59.363c0,4.513,3.658,8.17,8.17,8.17h110.113c4.512,0,8.17-3.657,8.17-8.17v-59.362
	c0-4.513-3.658-8.17-8.17-8.17h-44.264V320.12H247.83v40.468H200.944z M156.68,157.413h198.642v89.558H156.68V157.413z
	 M161.313,419.949H67.54v-43.021h93.772V419.949z M302.886,419.949h-93.772v-43.021h93.772V419.949z"/>
</svg>